{
    "asset": {
        "version": "2.0",
        "generator": "Open Asset Import Library (assimp v5.0.5eb040c7)"
    },
    "accessors": [
        {
            "bufferView": 0,
            "byteOffset": 0,
            "componentType": 5126,
            "count": 465,
            "type": "VEC3",
            "max": [
                0.775933027267456,
                1.5476117134094239,
                -0.267778217792511
            ],
            "min": [
                0.3381779193878174,
                0.9181452989578247,
                -0.5596384406089783
            ]
        },
        {
            "bufferView": 1,
            "byteOffset": 0,
            "componentType": 5125,
            "count": 1410,
            "type": "SCALAR",
            "max": [
                464
            ],
            "min": [
                0
            ]
        },
        {
            "bufferView": 2,
            "byteOffset": 0,
            "componentType": 5126,
            "count": 410,
            "type": "VEC3",
            "max": [
                0.7824483513832092,
                1.786799430847168,
                -0.24853181838989259
            ],
            "min": [
                0.3093106746673584,
                0.9210153222084045,
                -0.5639823079109192
            ]
        },
        {
            "bufferView": 3,
            "byteOffset": 0,
            "componentType": 5125,
            "count": 1338,
            "type": "SCALAR",
            "max": [
                409
            ],
            "min": [
                0
            ]
        },
        {
            "bufferView": 4,
            "byteOffset": 0,
            "componentType": 5126,
            "count": 62,
            "type": "VEC3",
            "max": [
                0.7659417390823364,
                0.043376483023166659,
                -0.3022002875804901
            ],
            "min": [
                0.389806866645813,
                -0.0010310681536793709,
                -0.5529770851135254
            ]
        },
        {
            "bufferView": 5,
            "byteOffset": 0,
            "componentType": 5125,
            "count": 174,
            "type": "SCALAR",
            "max": [
                61
            ],
            "min": [
                0
            ]
        },
        {
            "bufferView": 6,
            "byteOffset": 0,
            "componentType": 5126,
            "count": 38,
            "type": "VEC3",
            "max": [
                0.6600772142410278,
                0.06271062046289444,
                -0.3624657690525055
            ],
            "min": [
                0.48019781708717348,
                0.014760574325919152,
                -0.4823950231075287
            ]
        },
        {
            "bufferView": 7,
            "byteOffset": 0,
            "componentType": 5125,
            "count": 102,
            "type": "SCALAR",
            "max": [
                37
            ],
            "min": [
                0
            ]
        },
        {
            "bufferView": 8,
            "byteOffset": 0,
            "componentType": 5126,
            "count": 300,
            "type": "VEC3",
            "max": [
                0.7334858775138855,
                0.9625831842422485,
                -0.30943018198013308
            ],
            "min": [
                0.40065082907676699,
                0.08476557582616806,
                -0.5313380360603333
            ]
        },
        {
            "bufferView": 9,
            "byteOffset": 0,
            "componentType": 5125,
            "count": 1170,
            "type": "SCALAR",
            "max": [
                299
            ],
            "min": [
                0
            ]
        },
        {
            "bufferView": 10,
            "byteOffset": 0,
            "componentType": 5126,
            "count": 42,
            "type": "VEC3",
            "max": [
                0.7302858829498291,
                0.038719747215509418,
                -0.3020722568035126
            ],
            "min": [
                0.38961485028266909,
                0.006996156182140112,
                -0.5292045474052429
            ]
        },
        {
            "bufferView": 11,
            "byteOffset": 0,
            "componentType": 5125,
            "count": 108,
            "type": "SCALAR",
            "max": [
                41
            ],
            "min": [
                0
            ]
        },
        {
            "bufferView": 12,
            "byteOffset": 0,
            "componentType": 5126,
            "count": 344,
            "type": "VEC3",
            "max": [
                0.6931319236755371,
                1.4198453426361085,
                -0.35900306701660159
            ],
            "min": [
                0.4750041663646698,
                1.2485123872756959,
                -0.504433274269104
            ]
        },
        {
            "bufferView": 13,
            "byteOffset": 0,
            "componentType": 5125,
            "count": 1020,
            "type": "SCALAR",
            "max": [
                343
            ],
            "min": [
                0
            ]
        },
        {
            "bufferView": 14,
            "byteOffset": 0,
            "componentType": 5126,
            "count": 18,
            "type": "VEC3",
            "max": [
                0.6278983354568481,
                1.7060723304748536,
                -0.3731914162635803
            ],
            "min": [
                0.49628499150276186,
                1.6949987411499024,
                -0.46094071865081789
            ]
        },
        {
            "bufferView": 15,
            "byteOffset": 0,
            "componentType": 5125,
            "count": 42,
            "type": "SCALAR",
            "max": [
                17
            ],
            "min": [
                0
            ]
        },
        {
            "bufferView": 16,
            "byteOffset": 0,
            "componentType": 5126,
            "count": 241,
            "type": "VEC3",
            "max": [
                0.6326131820678711,
                1.8207969665527344,
                -0.3473859131336212
            ],
            "min": [
                0.4575798511505127,
                1.5487844944000245,
                -0.4640842080116272
            ]
        },
        {
            "bufferView": 17,
            "byteOffset": 0,
            "componentType": 5125,
            "count": 726,
            "type": "SCALAR",
            "max": [
                240
            ],
            "min": [
                0
            ]
        },
        {
            "bufferView": 18,
            "byteOffset": 0,
            "componentType": 5126,
            "count": 74,
            "type": "VEC3",
            "max": [
                0.7600637078285217,
                0.10623269528150559,
                -0.3041779398918152
            ],
            "min": [
                0.3927731215953827,
                0.018621258437633516,
                -0.5490580201148987
            ]
        },
        {
            "bufferView": 19,
            "byteOffset": 0,
            "componentType": 5125,
            "count": 210,
            "type": "SCALAR",
            "max": [
                73
            ],
            "min": [
                0
            ]
        },
        {
            "bufferView": 20,
            "byteOffset": 0,
            "componentType": 5126,
            "count": 24,
            "type": "VEC3",
            "max": [
                0.7415965795516968,
                1.0062538385391236,
                -0.5121644735336304
            ],
            "min": [
                0.7047277688980103,
                0.9642996788024902,
                -0.5367456674575806
            ]
        },
        {
            "bufferView": 21,
            "byteOffset": 0,
            "componentType": 5125,
            "count": 66,
            "type": "SCALAR",
            "max": [
                23
            ],
            "min": [
                0
            ]
        }
    ],
    "buffers": [
        {
            "byteLength": 49680,
            "uri": "result.bin"
        }
    ],
    "bufferViews": [
        {
            "buffer": 0,
            "byteOffset": 0,
            "byteLength": 5580,
            "target": 34962
        },
        {
            "buffer": 0,
            "byteOffset": 5580,
            "byteLength": 5640,
            "target": 34963
        },
        {
            "buffer": 0,
            "byteOffset": 11220,
            "byteLength": 4920,
            "target": 34962
        },
        {
            "buffer": 0,
            "byteOffset": 16140,
            "byteLength": 5352,
            "target": 34963
        },
        {
            "buffer": 0,
            "byteOffset": 21492,
            "byteLength": 744,
            "target": 34962
        },
        {
            "buffer": 0,
            "byteOffset": 22236,
            "byteLength": 696,
            "target": 34963
        },
        {
            "buffer": 0,
            "byteOffset": 22932,
            "byteLength": 456,
            "target": 34962
        },
        {
            "buffer": 0,
            "byteOffset": 23388,
            "byteLength": 408,
            "target": 34963
        },
        {
            "buffer": 0,
            "byteOffset": 23796,
            "byteLength": 3600,
            "target": 34962
        },
        {
            "buffer": 0,
            "byteOffset": 27396,
            "byteLength": 4680,
            "target": 34963
        },
        {
            "buffer": 0,
            "byteOffset": 32076,
            "byteLength": 504,
            "target": 34962
        },
        {
            "buffer": 0,
            "byteOffset": 32580,
            "byteLength": 432,
            "target": 34963
        },
        {
            "buffer": 0,
            "byteOffset": 33012,
            "byteLength": 4128,
            "target": 34962
        },
        {
            "buffer": 0,
            "byteOffset": 37140,
            "byteLength": 4080,
            "target": 34963
        },
        {
            "buffer": 0,
            "byteOffset": 41220,
            "byteLength": 216,
            "target": 34962
        },
        {
            "buffer": 0,
            "byteOffset": 41436,
            "byteLength": 168,
            "target": 34963
        },
        {
            "buffer": 0,
            "byteOffset": 41604,
            "byteLength": 2892,
            "target": 34962
        },
        {
            "buffer": 0,
            "byteOffset": 44496,
            "byteLength": 2904,
            "target": 34963
        },
        {
            "buffer": 0,
            "byteOffset": 47400,
            "byteLength": 888,
            "target": 34962
        },
        {
            "buffer": 0,
            "byteOffset": 48288,
            "byteLength": 840,
            "target": 34963
        },
        {
            "buffer": 0,
            "byteOffset": 49128,
            "byteLength": 288,
            "target": 34962
        },
        {
            "buffer": 0,
            "byteOffset": 49416,
            "byteLength": 264,
            "target": 34963
        }
    ],
    "materials": [
        {
            "name": "Marc_Shirt",
            "pbrMetallicRoughness": {
                "baseColorFactor": [
                    0.3803921639919281,
                    0.43529412150382998,
                    0.6823529601097107,
                    1.0
                ],
                "metallicFactor": 0.0,
                "roughnessFactor": 0.953330934047699
            }
        },
        {
            "name": "Marc_Skin",
            "pbrMetallicRoughness": {
                "baseColorFactor": [
                    0.8235294222831726,
                    0.7215686440467835,
                    0.658823549747467,
                    1.0
                ],
                "metallicFactor": 0.0,
                "roughnessFactor": 0.953330934047699
            }
        },
        {
            "name": "Marc_Shoes2",
            "pbrMetallicRoughness": {
                "baseColorFactor": [
                    0.2666666805744171,
                    0.3137255012989044,
                    0.4117647111415863,
                    1.0
                ],
                "metallicFactor": 0.0,
                "roughnessFactor": 0.953330934047699
            }
        },
        {
            "name": "Marc_Shoes3",
            "pbrMetallicRoughness": {
                "baseColorFactor": [
                    0.6196078658103943,
                    0.8392156958580017,
                    0.5686274766921997,
                    1.0
                ],
                "metallicFactor": 0.0,
                "roughnessFactor": 0.953330934047699
            }
        },
        {
            "name": "Marc_Pants",
            "pbrMetallicRoughness": {
                "baseColorFactor": [
                    0.4117647111415863,
                    0.3843137323856354,
                    0.4000000059604645,
                    1.0
                ],
                "metallicFactor": 0.0,
                "roughnessFactor": 0.953330934047699
            }
        },
        {
            "name": "FrontColor",
            "pbrMetallicRoughness": {
                "metallicFactor": 0.0,
                "roughnessFactor": 0.953330934047699
            }
        },
        {
            "name": "Marc_Shirt2",
            "pbrMetallicRoughness": {
                "baseColorFactor": [
                    0.6392157077789307,
                    0.6745098233222961,
                    0.8274509906768799,
                    1.0
                ],
                "metallicFactor": 0.0,
                "roughnessFactor": 0.953330934047699
            }
        },
        {
            "name": "Marc_Shoes4",
            "pbrMetallicRoughness": {
                "baseColorFactor": [
                    0.800000011920929,
                    0.7803921699523926,
                    0.7882353067398071,
                    1.0
                ],
                "metallicFactor": 0.0,
                "roughnessFactor": 0.953330934047699
            }
        },
        {
            "name": "Marc_Hair",
            "pbrMetallicRoughness": {
                "baseColorFactor": [
                    0.47058823704719546,
                    0.43529412150382998,
                    0.43529412150382998,
                    1.0
                ],
                "metallicFactor": 0.0,
                "roughnessFactor": 0.953330934047699
            }
        },
        {
            "name": "Marc_Shoes",
            "pbrMetallicRoughness": {
                "baseColorFactor": [
                    0.3921568691730499,
                    0.4000000059604645,
                    0.47058823704719546,
                    1.0
                ],
                "metallicFactor": 0.0,
                "roughnessFactor": 0.953330934047699
            }
        },
        {
            "name": "Marc_Wrist",
            "pbrMetallicRoughness": {
                "baseColorFactor": [
                    0.7372549176216126,
                    0.30980393290519717,
                    0.239215686917305,
                    1.0
                ],
                "metallicFactor": 0.0,
                "roughnessFactor": 0.953330934047699
            }
        }
    ],
    "meshes": [
        {
            "name": "Mesh1",
            "primitives": [
                {
                    "mode": 4,
                    "material": 0,
                    "indices": 1,
                    "attributes": {
                        "POSITION": 0
                    }
                },
                {
                    "mode": 4,
                    "material": 1,
                    "indices": 3,
                    "attributes": {
                        "POSITION": 2
                    }
                },
                {
                    "mode": 4,
                    "material": 2,
                    "indices": 5,
                    "attributes": {
                        "POSITION": 4
                    }
                },
                {
                    "mode": 4,
                    "material": 3,
                    "indices": 7,
                    "attributes": {
                        "POSITION": 6
                    }
                },
                {
                    "mode": 4,
                    "material": 4,
                    "indices": 9,
                    "attributes": {
                        "POSITION": 8
                    }
                },
                {
                    "mode": 4,
                    "material": 5,
                    "indices": 11,
                    "attributes": {
                        "POSITION": 10
                    }
                },
                {
                    "mode": 4,
                    "material": 6,
                    "indices": 13,
                    "attributes": {
                        "POSITION": 12
                    }
                },
                {
                    "mode": 4,
                    "material": 7,
                    "indices": 15,
                    "attributes": {
                        "POSITION": 14
                    }
                },
                {
                    "mode": 4,
                    "material": 8,
                    "indices": 17,
                    "attributes": {
                        "POSITION": 16
                    }
                },
                {
                    "mode": 4,
                    "material": 9,
                    "indices": 19,
                    "attributes": {
                        "POSITION": 18
                    }
                },
                {
                    "mode": 4,
                    "material": 10,
                    "indices": 21,
                    "attributes": {
                        "POSITION": 20
                    }
                }
            ]
        }
    ],
    "nodes": [
        {
            "name": "RootNode",
            "children": [
                1
            ]
        },
        {
            "name": "Model",
            "children": [
                2
            ]
        },
        {
            "name": "Marc1",
            "children": [
                3
            ]
        },
        {
            "name": "Mesh1",
            "mesh": 0
        }
    ],
    "scenes": [
        {
            "nodes": [
                0
            ]
        }
    ],
    "scene": 0
}